{
	"asset":{
		"generator":"Khronos glTF Blender I/O v3.6.27",
		"version":"2.0"
	},
	"extensionsUsed":[
		"KHR_materials_specular",
		"KHR_materials_ior",
		"KHR_texture_transform"
	],
	"extensionsRequired":[
		"KHR_texture_transform"
	],
	"scene":0,
	"scenes":[
		{
			"name":"Scene",
			"nodes":[
				0
			]
		}
	],
	"nodes":[
		{
			"mesh":0,
			"name":"Viking Helmet",
			"scale":[
				2.5888895988464355,
				2.5888895988464355,
				2.5888895988464355
			],
			"translation":[
				-2.0100767612457275,
				-0.17154094576835632,
				-0.8504390716552734
			]
		}
	],
	"materials":[
		{
			"doubleSided":true,
			"name":"Metal_Material.002",
			"pbrMetallicRoughness":{
				"baseColorFactor":[
					0.8000000715255737,
					0.7337945103645325,
					0.5548490285873413,
					1
				],
				"metallicRoughnessTexture":{
					"index":0
				}
			}
		},
		{
			"doubleSided":true,
			"extensions":{
				"KHR_materials_specular":{
					"specularColorFactor":[
						0.5569097770506746,
						0.5569097770506746,
						0.5569097770506746
					]
				},
				"KHR_materials_ior":{
					"ior":1.4500000476837158
				}
			},
			"name":"Leather_Material.002",
			"pbrMetallicRoughness":{
				"metallicFactor":0,
				"metallicRoughnessTexture":{
					"extensions":{
						"KHR_texture_transform":{
							"offset":[
								0,
								6.400000095367432
							],
							"scale":[
								-5.400000095367432,
								-5.400000095367432
							]
						}
					},
					"index":1
				}
			}
		},
		{
			"doubleSided":true,
			"name":"Ivory_Material.002",
			"pbrMetallicRoughness":{
				"metallicFactor":0
			}
		}
	],
	"meshes":[
		{
			"name":"Viking Helmet.001",
			"primitives":[
				{
					"attributes":{
						"POSITION":0,
						"NORMAL":1,
						"TEXCOORD_0":2,
						"TEXCOORD_1":3
					},
					"indices":4,
					"material":0
				},
				{
					"attributes":{
						"POSITION":5,
						"NORMAL":6,
						"TEXCOORD_0":7,
						"TEXCOORD_1":8
					},
					"indices":9,
					"material":1
				},
				{
					"attributes":{
						"POSITION":10,
						"NORMAL":11,
						"TEXCOORD_0":12,
						"TEXCOORD_1":13
					},
					"indices":14,
					"material":2
				}
			]
		}
	],
	"textures":[
		{
			"sampler":0,
			"source":0
		},
		{
			"sampler":0,
			"source":0
		}
	],
	"images":[
		{
			"bufferView":5,
			"mimeType":"image/png",
			"name":"Image"
		}
	],
	"accessors":[
		{
			"bufferView":0,
			"componentType":5126,
			"count":2544,
			"max":[
				0.8929868340492249,
				1.022801399230957,
				0.9028375744819641
			],
			"min":[
				-0.8929868340492249,
				-0.5760174989700317,
				-0.8844864368438721
			],
			"type":"VEC3"
		},
		{
			"bufferView":1,
			"componentType":5126,
			"count":2544,
			"type":"VEC3"
		},
		{
			"bufferView":2,
			"componentType":5126,
			"count":2544,
			"type":"VEC2"
		},
		{
			"bufferView":3,
			"componentType":5126,
			"count":2544,
			"type":"VEC2"
		},
		{
			"bufferView":4,
			"componentType":5123,
			"count":7140,
			"type":"SCALAR"
		},
		{
			"bufferView":6,
			"componentType":5126,
			"count":1050,
			"max":[
				0.800315797328949,
				0.9325888752937317,
				0.7874256372451782
			],
			"min":[
				-0.800315797328949,
				0.14763961732387543,
				-0.7874256372451782
			],
			"type":"VEC3"
		},
		{
			"bufferView":7,
			"componentType":5126,
			"count":1050,
			"type":"VEC3"
		},
		{
			"bufferView":8,
			"componentType":5126,
			"count":1050,
			"type":"VEC2"
		},
		{
			"bufferView":9,
			"componentType":5126,
			"count":1050,
			"type":"VEC2"
		},
		{
			"bufferView":10,
			"componentType":5123,
			"count":4680,
			"type":"SCALAR"
		},
		{
			"bufferView":11,
			"componentType":5126,
			"count":516,
			"max":[
				1.1714043617248535,
				1.6274429559707642,
				0.18277806043624878
			],
			"min":[
				-1.1714043617248535,
				0.4842989444732666,
				-0.18277806043624878
			],
			"type":"VEC3"
		},
		{
			"bufferView":12,
			"componentType":5126,
			"count":516,
			"type":"VEC3"
		},
		{
			"bufferView":13,
			"componentType":5126,
			"count":516,
			"type":"VEC2"
		},
		{
			"bufferView":14,
			"componentType":5126,
			"count":516,
			"type":"VEC2"
		},
		{
			"bufferView":15,
			"componentType":5123,
			"count":2688,
			"type":"SCALAR"
		}
	],
	"bufferViews":[
		{
			"buffer":0,
			"byteLength":30528,
			"byteOffset":0,
			"target":34962
		},
		{
			"buffer":0,
			"byteLength":30528,
			"byteOffset":30528,
			"target":34962
		},
		{
			"buffer":0,
			"byteLength":20352,
			"byteOffset":61056,
			"target":34962
		},
		{
			"buffer":0,
			"byteLength":20352,
			"byteOffset":81408,
			"target":34962
		},
		{
			"buffer":0,
			"byteLength":14280,
			"byteOffset":101760,
			"target":34963
		},
		{
			"buffer":0,
			"byteLength":243,
			"byteOffset":116040
		},
		{
			"buffer":0,
			"byteLength":12600,
			"byteOffset":116284,
			"target":34962
		},
		{
			"buffer":0,
			"byteLength":12600,
			"byteOffset":128884,
			"target":34962
		},
		{
			"buffer":0,
			"byteLength":8400,
			"byteOffset":141484,
			"target":34962
		},
		{
			"buffer":0,
			"byteLength":8400,
			"byteOffset":149884,
			"target":34962
		},
		{
			"buffer":0,
			"byteLength":9360,
			"byteOffset":158284,
			"target":34963
		},
		{
			"buffer":0,
			"byteLength":6192,
			"byteOffset":167644,
			"target":34962
		},
		{
			"buffer":0,
			"byteLength":6192,
			"byteOffset":173836,
			"target":34962
		},
		{
			"buffer":0,
			"byteLength":4128,
			"byteOffset":180028,
			"target":34962
		},
		{
			"buffer":0,
			"byteLength":4128,
			"byteOffset":184156,
			"target":34962
		},
		{
			"buffer":0,
			"byteLength":5376,
			"byteOffset":188284,
			"target":34963
		}
	],
	"samplers":[
		{
			"magFilter":9729,
			"minFilter":9987
		}
	],
	"buffers":[
		{
			"byteLength":193660,
			"uri":"data:application/octet-stream;base64,"
		}
	]
}
